<?xml version="1.0" standalone="no"?>
<!DOCTYPE svg PUBLIC "-//W3C//DTD SVG 20010904//EN"
 "http://www.w3.org/TR/2001/REC-SVG-20010904/DTD/svg10.dtd">
<svg version="1.0" xmlns="http://www.w3.org/2000/svg"
 width="1920.000000pt" height="1080.000000pt" viewBox="0 0 1920.000000 1080.000000"
 preserveAspectRatio="xMidYMid meet">

<g transform="translate(0.000000,1080.000000) scale(0.100000,-0.100000)"
fill="#000000" stroke="none">
<path d="M0 5400 l0 -5400 3973 1 c2184 0 3966 3 3960 6 -7 2 -13 9 -13 14 0
6 4 8 9 4 5 -3 12 -1 16 5 3 5 1 10 -6 10 -7 0 -10 2 -7 5 3 3 13 2 22 -1 14
-5 15 -9 5 -15 -8 -4 -10 -11 -6 -15 3 -4 12 -2 19 3 7 6 21 9 31 8 24 -4 21
4 -5 14 -21 8 -21 8 5 13 19 4 27 1 27 -8 0 -8 5 -14 11 -14 8 0 8 -4 0 -14
-10 -12 -9 -14 6 -11 10 2 19 4 20 4 1 1 -2 12 -7 26 -6 16 -6 25 0 25 6 0 10
-6 10 -12 0 -10 3 -9 9 1 5 8 5 27 0 44 -12 41 -21 47 -13 9 5 -23 3 -32 -7
-33 -17 -1 -45 -6 -76 -14 -16 -4 -23 -1 -23 9 0 8 -5 18 -12 22 -7 4 -8 3 -4
-4 4 -7 1 -12 -8 -12 -20 0 -21 16 -2 27 12 7 12 10 0 21 -8 7 -14 8 -14 2 0
-5 -5 -10 -11 -10 -5 0 -7 5 -3 12 5 7 3 8 -6 3 -10 -6 -9 -11 4 -20 15 -12
15 -14 1 -29 -20 -20 -21 -20 -29 0 -4 12 -2 15 9 10 8 -3 15 -2 15 3 0 10
-25 32 -31 28 -3 -1 4 6 15 16 10 10 16 21 12 24 -4 4 -10 3 -14 -3 -10 -13
-63 -12 -58 2 2 6 0 17 -5 25 -7 11 -9 10 -9 -6 -1 -15 -4 -13 -14 10 -12 28
-13 29 -24 10 -6 -11 -11 -15 -11 -10 0 19 27 45 41 40 9 -4 15 0 15 9 0 14
-33 16 -55 2 -7 -4 -12 -2 -12 4 0 6 -4 8 -10 5 -5 -3 -10 3 -10 14 0 19 -10
26 -33 22 -4 0 -7 3 -7 9 0 13 6 13 30 0 22 -12 36 3 37 40 1 14 -1 19 -4 12
-10 -25 -21 -1 -13 28 9 31 7 33 -22 31 -9 -1 -20 3 -24 10 -4 8 -3 9 4 5 20
-12 35 4 20 22 -10 12 -10 14 0 8 7 -4 12 -2 12 4 0 6 5 8 10 5 6 -4 8 -11 5
-16 -4 -5 -1 -9 4 -9 6 0 11 4 11 9 0 13 -26 32 -33 24 -7 -6 -11 19 -8 42 1
6 -6 1 -15 -10 -11 -14 -15 -16 -14 -5 4 29 0 41 -12 34 -6 -4 -8 -3 -5 4 8
11 25 11 43 -1 7 -4 15 0 18 9 3 9 12 14 20 11 10 -4 12 0 9 14 -7 26 -22 34
-29 15 -3 -9 -11 -16 -16 -16 -6 0 -5 6 2 15 12 14 7 19 -13 16 -5 -1 -6 3 -2
9 3 5 21 8 40 6 22 -3 38 1 46 10 7 8 8 14 3 12 -9 -3 -14 4 -14 23 0 8 4 8
13 1 9 -8 13 -3 14 18 2 23 -1 28 -15 24 -9 -3 -4 2 11 11 26 15 28 21 23 55
l-5 39 20 -20 c11 -11 24 -17 30 -14 13 9 1 25 -19 26 -14 0 -13 2 3 9 26 11
44 12 27 1 -11 -7 -11 -9 2 -14 11 -5 16 0 16 14 0 11 5 17 10 14 6 -4 8 -10
5 -15 -3 -5 -1 -11 4 -15 6 -3 8 3 6 15 -3 15 1 20 17 20 18 0 19 2 7 17 -9
11 -10 14 -2 9 9 -5 11 -2 7 8 -5 14 -9 14 -33 -3 -29 -21 -51 -18 -50 7 0 10
3 12 5 5 3 -7 12 -9 20 -6 12 4 12 8 2 22 -8 11 -5 10 10 -3 20 -18 27 -15 23
8 -1 5 4 4 12 -2 8 -7 17 -9 20 -5 4 3 7 -2 7 -12 0 -10 3 -15 7 -11 9 9 13
36 5 35 -28 -4 -34 3 -12 15 16 8 31 10 43 4 13 -7 17 -4 17 12 0 26 22 22 26
-4 5 -37 21 -38 17 -2 -3 29 0 36 14 36 17 1 17 1 1 14 -28 21 -21 30 8 11 18
-12 29 -13 38 -6 9 7 17 7 26 -2 12 -10 12 -9 1 5 -7 9 -9 23 -5 29 4 8 3 9
-4 5 -7 -4 -12 -1 -12 6 0 9 -3 9 -10 -2 -8 -11 -10 -7 -8 17 2 24 7 33 20 33
9 0 20 5 24 12 5 8 2 9 -10 5 -9 -4 -15 -3 -11 2 3 6 14 9 25 8 15 -1 18 -6
14 -20 -4 -13 -2 -18 7 -15 8 3 13 20 14 44 0 36 2 39 28 39 32 1 46 -13 26
-26 -10 -6 -10 -9 -2 -9 7 0 17 9 23 21 7 12 18 18 26 15 9 -3 12 -1 9 4 -3 6
-1 10 4 10 6 0 11 -4 11 -10 0 -5 7 -7 15 -3 14 5 14 7 0 23 -8 9 -12 20 -8
23 3 4 13 -2 20 -13 11 -16 18 -18 34 -10 16 9 21 7 27 -10 8 -21 8 -21 20 5
10 21 9 27 -3 31 -25 10 -17 24 13 24 22 0 24 -2 12 -11 -11 -8 -8 -9 15 -5
30 6 30 6 6 -7 -20 -12 -21 -15 -7 -20 10 -4 15 -3 12 1 -3 4 4 13 15 20 15
10 19 10 19 0 0 -10 2 -10 9 0 6 11 10 10 15 -4 3 -9 9 -14 13 -11 3 4 12 2
18 -3 9 -8 14 -6 19 5 4 12 0 14 -18 11 -15 -3 -27 1 -30 10 -3 8 -12 14 -21
14 -8 0 -15 5 -15 10 0 16 15 12 40 -10 12 -11 27 -17 33 -13 8 5 7 8 -1 11
-7 2 -10 8 -7 12 9 14 34 0 29 -15 -3 -7 4 -19 16 -25 16 -9 19 -15 10 -24
-13 -17 -3 -46 16 -46 8 0 14 -7 14 -15 0 -18 5 -18 30 -5 19 10 22 -2 6 -28
-5 -8 -3 -19 3 -25 9 -9 11 -8 6 6 -4 10 -2 17 4 17 6 0 11 9 11 21 0 11 5 17
10 14 6 -3 10 -1 10 5 0 6 5 8 13 4 9 -6 9 -4 1 7 -6 8 -11 24 -12 37 -1 19 1
20 14 8 16 -17 19 -30 4 -21 -5 3 -10 1 -10 -4 0 -6 10 -11 23 -11 18 0 19 -2
7 -10 -8 -5 -10 -10 -5 -11 6 0 2 -3 -7 -7 -15 -6 -15 -9 -2 -26 13 -18 14
-18 14 -2 0 10 5 16 13 13 6 -2 11 -8 10 -13 -1 -5 20 -10 45 -11 32 -1 39 1
23 5 -30 9 -40 32 -14 32 14 0 15 -2 5 -9 -10 -6 -7 -10 12 -13 14 -3 29 -1
34 4 5 5 9 2 9 -7 0 -8 -7 -15 -15 -15 -8 0 -12 -6 -8 -15 3 -8 1 -15 -4 -15
-6 0 -10 5 -10 10 0 6 -5 10 -11 10 -8 0 -8 -4 -1 -12 6 -7 10 -17 10 -21 0
-5 4 -12 8 -15 4 -4 4 -1 0 6 -4 6 -2 12 3 12 6 0 11 -5 11 -11 0 -5 5 -7 10
-4 6 4 7 12 3 18 -5 8 -2 8 9 0 8 -7 18 -10 21 -6 4 3 7 -2 7 -13 0 -16 2 -17
10 -4 9 13 10 13 11 0 1 -8 1 -19 0 -23 -1 -5 3 -6 8 -3 5 4 16 -1 24 -9 12
-11 17 -12 20 -2 3 7 6 5 6 -5 1 -10 -4 -18 -11 -18 -6 0 -8 -3 -5 -6 9 -9 38
16 32 26 -3 5 0 12 6 16 8 5 9 3 4 -6 -6 -10 -4 -12 10 -6 14 5 16 4 7 -7 -14
-16 -6 -28 14 -20 8 3 11 10 7 17 -4 7 -1 7 7 -1 11 -10 10 -16 -5 -33 -11
-12 -13 -20 -6 -20 6 0 14 6 17 14 3 8 12 12 20 9 8 -3 14 0 14 7 0 6 -4 8
-10 5 -5 -3 -10 1 -10 9 0 21 5 20 29 -5 15 -17 18 -26 10 -40 -7 -15 -6 -19
6 -19 13 0 14 -4 5 -20 -8 -15 -8 -18 3 -15 7 3 14 15 14 27 3 29 21 46 19 17
0 -12 5 -24 13 -27 8 -2 11 0 8 5 -3 5 0 10 8 10 11 0 12 -4 4 -14 -9 -9 -8
-13 0 -13 7 0 9 -4 6 -10 -3 -5 1 -10 9 -10 9 0 16 -6 16 -12 0 -7 10 -24 21
-38 l20 -25 -7 25 c-4 14 -12 29 -18 33 -7 6 -6 7 4 4 8 -2 19 -18 24 -35 8
-29 10 -31 23 -14 8 9 11 11 8 4 -5 -9 1 -15 15 -19 16 -4 18 -8 9 -14 -8 -4
-10 -12 -5 -16 4 -4 15 1 24 12 23 29 51 39 47 17 -2 -9 -4 -21 -4 -26 -1 -4
-8 -5 -17 -2 -12 5 -15 2 -10 -10 3 -8 6 -23 6 -32 0 -10 3 -13 8 -7 4 6 21
12 37 13 23 1 26 -1 15 -8 -13 -9 -13 -11 0 -19 8 -5 18 -7 23 -4 5 3 4 -3 -1
-14 -6 -11 -7 -25 -2 -33 7 -11 11 -10 24 3 15 14 14 16 -2 20 -14 4 -14 5 -1
6 9 0 22 -6 29 -14 10 -12 10 -15 -1 -15 -8 0 -14 -10 -14 -24 0 -13 3 -22 7
-19 5 2 8 11 8 19 0 8 5 14 11 14 5 0 7 -4 4 -10 -3 -5 -1 -10 5 -10 6 0 9 -4
6 -9 -3 -5 1 -15 10 -22 12 -10 15 -10 12 1 -2 7 3 15 9 17 7 3 13 1 13 -4 0
-5 13 -8 29 -7 22 1 28 -2 24 -12 -3 -8 -9 -11 -14 -8 -5 3 -9 -2 -9 -10 0
-10 6 -13 17 -9 9 4 14 2 10 -3 -3 -5 6 -11 21 -12 23 -2 24 -1 9 10 -15 12
-15 15 1 34 17 20 17 20 37 1 11 -11 15 -17 8 -13 -6 3 -14 0 -16 -6 -3 -7 -6
-4 -6 7 -1 15 -4 16 -13 7 -9 -9 -9 -15 -1 -23 8 -8 9 -16 1 -29 -8 -12 -8
-22 1 -36 10 -17 11 -16 7 8 -3 19 0 27 15 31 24 6 35 -10 12 -17 -13 -3 -11
-4 4 -3 12 1 29 -7 38 -18 9 -11 14 -15 11 -9 -3 7 4 14 16 17 19 5 20 8 7 23
-12 15 -12 17 0 9 11 -6 13 -4 8 9 -4 10 -3 15 3 11 15 -9 8 -65 -8 -65 -7 0
-10 -4 -7 -10 3 -5 -1 -10 -10 -10 -9 0 -14 -4 -11 -8 3 -5 -1 -9 -8 -9 -8 0
-12 6 -9 14 3 8 -2 13 -13 12 -11 0 -14 -3 -6 -6 6 -2 10 -8 7 -13 -3 -5 2
-16 11 -25 15 -14 17 -14 28 0 10 15 14 14 35 -4 17 -15 27 -18 37 -10 8 6 14
7 18 0 4 -5 -2 -15 -11 -21 -16 -10 -16 -10 4 -5 12 3 25 1 29 -6 4 -8 3 -9
-4 -5 -7 4 -12 2 -12 -4 0 -6 -6 -10 -14 -8 -8 2 -14 -1 -13 -7 1 -5 6 -9 11
-7 5 2 4 -4 -3 -12 -10 -12 -9 -14 10 -9 14 4 20 2 16 -5 -4 -5 -1 -12 5 -15
9 -3 7 -10 -7 -26 -12 -14 -14 -21 -6 -19 7 2 16 -3 18 -9 3 -7 0 -13 -6 -13
-6 0 -11 -5 -11 -11 0 -5 5 -7 10 -4 6 4 10 -27 10 -85 0 -79 -2 -91 -16 -86
-8 3 -12 2 -9 -4 4 -7 1603 -10 4656 -10 l4649 0 0 5400 0 5400 -9600 0 -9600
0 0 -5400z m11084 4088 c19 -31 30 -88 18 -88 -19 0 -52 52 -52 81 0 35 14 37
34 7z m-3084 -317 c0 -6 -4 -13 -10 -16 -5 -3 -10 1 -10 9 0 9 5 16 10 16 6 0
10 -4 10 -9z m-100 -21 c0 -5 -4 -10 -9 -10 -6 0 -13 5 -16 10 -3 6 1 10 9 10
9 0 16 -4 16 -10z m284 -51 c-3 -5 -10 -7 -15 -3 -5 3 -7 10 -3 15 3 5 10 7
15 3 5 -3 7 -10 3 -15z m-102 -4 c0 -5 -5 -11 -11 -13 -6 -2 -11 4 -11 13 0 9
5 15 11 13 6 -2 11 -8 11 -13z m-470 -87 c-7 -7 -12 -8 -12 -2 0 14 12 26 19
19 2 -3 -1 -11 -7 -17z m846 -402 c63 -27 158 -81 329 -189 101 -63 126 -87
89 -87 -7 0 -23 -11 -35 -24 -18 -19 -23 -36 -23 -76 1 -98 72 -200 150 -216
77 -16 108 94 57 204 -13 28 -19 52 -14 52 6 0 48 -24 94 -54 81 -53 83 -56
94 -106 6 -28 11 -105 11 -170 0 -99 -3 -120 -15 -120 -8 0 -77 29 -152 64
-76 35 -228 103 -338 151 -110 48 -210 97 -222 109 -46 43 -73 164 -88 389 -4
53 -4 97 -1 97 4 0 33 -11 64 -24z m1222 -601 c331 -55 463 -84 567 -126 l51
-21 7 -72 c11 -111 2 -443 -11 -456 -9 -9 -45 3 -145 48 -74 33 -251 112 -394
176 -142 64 -265 122 -273 129 -26 27 -39 310 -15 350 3 5 17 6 31 3 15 -3 97
-17 182 -31z m2410 -336 c0 -5 -7 -9 -15 -9 -9 0 -12 6 -9 15 6 15 24 11 24
-6z m-424 -168 c-8 -13 -36 -15 -36 -3 0 4 5 13 12 20 14 14 34 0 24 -17z
m-2872 -137 c4 -12 15 -15 36 -12 40 6 38 -3 -5 -26 -20 -11 -35 -27 -35 -37
0 -10 -4 -21 -10 -24 -5 -3 -10 -1 -10 4 0 6 -9 11 -20 11 -11 0 -20 -5 -20
-11 0 -6 -14 -8 -37 -4 -52 8 -103 25 -103 34 0 5 28 16 63 25 82 22 117 36
117 47 0 15 18 10 24 -7z m156 -60 c0 -2 -9 0 -20 6 -11 6 -20 13 -20 16 0 2
9 0 20 -6 11 -6 20 -13 20 -16z m-76 -65 c-7 -11 -34 -12 -34 -1 0 14 11 21
26 15 8 -3 11 -9 8 -14z m-5138 -2416 c13 -13 28 -23 34 -23 5 0 10 -6 10 -14
0 -8 9 -18 20 -21 11 -4 20 -15 20 -27 0 -18 -2 -19 -17 -7 -10 8 -20 17 -23
21 -3 4 -15 9 -25 11 -11 2 -30 8 -41 15 -12 6 -24 9 -27 6 -9 -9 -20 63 -12
76 7 12 19 5 61 -37z m101 -85 c-3 -8 -6 -5 -6 6 -1 11 2 17 5 13 3 -3 4 -12
1 -19z m5872 -3527 c117 -74 215 -141 218 -149 3 -7 1 -18 -5 -24 -7 -7 -46
15 -123 71 -63 45 -161 115 -219 156 -58 41 -118 86 -135 100 l-30 27 40 -23
c22 -13 136 -84 254 -158z m-1143 44 c-3 -20 -13 -28 -26 -20 -8 5 -5 11 7 21
23 17 22 17 19 -1z m-153 -40 c-4 -28 -1 -35 12 -35 9 0 13 -5 10 -11 -5 -7
-15 -3 -29 10 -29 27 -35 26 -29 -1 3 -13 2 -19 -3 -15 -4 4 -9 19 -10 32 -1
20 2 23 18 14 19 -10 21 -6 21 33 0 10 3 15 7 13 4 -3 6 -21 3 -40z m77 36 c0
-5 -7 -12 -16 -15 -14 -5 -15 -4 -4 9 14 17 20 19 20 6z m-187 -48 c-7 -2 -21
-2 -30 0 -10 3 -4 5 12 5 17 0 24 -2 18 -5z m17 -27 c0 -7 -11 -21 -25 -30
-21 -14 -24 -14 -19 -1 4 8 12 15 20 15 8 0 14 7 14 15 0 8 2 15 5 15 3 0 5
-6 5 -14z m401 -3 c8 -10 9 -14 2 -10 -6 4 -14 3 -18 -3 -3 -5 1 -10 9 -10 10
0 16 -9 16 -21 0 -12 -5 -19 -12 -16 -7 2 -20 -2 -30 -10 -14 -13 -17 -12 -23
6 -3 12 -10 19 -15 16 -4 -3 -10 1 -13 8 -3 8 4 19 14 25 11 7 19 9 18 5 -3
-19 2 -33 12 -33 5 0 9 8 7 18 -2 15 8 42 16 42 2 0 10 -8 17 -17z m-574 -30
c-4 -3 0 -14 8 -23 13 -14 13 -17 0 -17 -8 0 -12 4 -9 8 2 4 0 10 -6 14 -10 6
-5 25 7 25 4 0 3 -3 0 -7z m683 -63 c0 -5 -5 -10 -11 -10 -5 0 -7 5 -4 10 3 6
8 10 11 10 2 0 4 -4 4 -10z m-696 -93 c7 4 6 1 -1 -7 -11 -11 -17 -10 -35 7
-13 11 -29 18 -36 16 -8 -3 -3 5 10 18 l23 24 14 -32 c8 -20 18 -30 25 -26z
m821 35 c-6 -7 -34 11 -29 19 3 5 11 3 19 -4 7 -6 12 -13 10 -15z m57 -44 c-9
-9 -15 -9 -24 1 -11 11 -10 13 5 8 10 -4 17 -2 17 5 0 6 3 8 7 5 4 -4 1 -13
-5 -19z m-968 -13 c-4 -8 -11 -12 -16 -9 -6 4 -5 10 3 15 19 12 19 11 13 -6z
m-189 -143 c-3 -3 -11 0 -18 7 -9 10 -8 11 6 5 10 -3 15 -9 12 -12z m1482 -34
c-3 -8 -6 -5 -6 6 -1 11 2 17 5 13 3 -3 4 -12 1 -19z m38 -18 c-8 -13 1 -13
26 0 11 6 19 7 19 1 0 -10 -49 -25 -57 -17 -5 5 5 26 13 26 3 0 2 -4 -1 -10z
m99 -46 c3 -8 2 -12 -4 -9 -6 3 -13 -1 -16 -9 -3 -9 -13 -16 -22 -16 -11 0 -9
6 9 24 13 13 25 24 25 25 1 1 5 -6 8 -15z m-1704 -4 c0 -5 -5 -10 -11 -10 -5
0 -7 5 -4 10 3 6 8 10 11 10 2 0 4 -4 4 -10z m6 -42 c5 -7 3 -8 -6 -3 -9 6
-12 4 -8 -7 4 -8 2 -21 -3 -29 -5 -9 -7 -4 -5 16 5 41 9 45 22 23z m1834 -94
c0 -2 -9 0 -20 6 -11 6 -20 13 -20 16 0 2 9 0 20 -6 11 -6 20 -13 20 -16z
m180 -90 c0 -8 -19 -13 -24 -6 -3 5 1 9 9 9 8 0 15 -2 15 -3z m76 -100 c0 -22
-1 -22 -18 -7 -19 17 -17 30 5 30 7 0 13 -11 13 -23z m-2166 -14 c0 -5 -5 -10
-11 -10 -5 0 -7 5 -4 10 3 6 8 10 11 10 2 0 4 -4 4 -10z m30 -17 c0 -19 -13
-9 -16 12 -1 8 2 13 7 9 5 -3 9 -12 9 -21z m-49 -26 c-10 -9 -11 -8 -5 6 3 10
9 15 12 12 3 -3 0 -11 -7 -18z m58 -11 c8 -10 9 -16 1 -21 -5 -3 -13 1 -16 10
-5 13 -9 14 -15 4 -4 -8 -11 -10 -16 -6 -4 5 -1 12 7 17 20 13 26 12 39 -4z
m-19 -86 c0 -5 -5 -10 -11 -10 -5 0 -7 5 -4 10 3 6 8 10 11 10 2 0 4 -4 4 -10z"/>
<path d="M9801 7854 c-15 -19 -21 -41 -21 -76 0 -59 17 -103 60 -152 58 -65
118 -83 157 -46 43 40 41 118 -5 204 -49 91 -147 126 -191 70z"/>
<path d="M8705 1130 c3 -5 8 -10 11 -10 2 0 4 5 4 10 0 6 -5 10 -11 10 -5 0
-7 -4 -4 -10z"/>
<path d="M8605 1159 c-4 -6 -5 -12 -2 -15 2 -3 7 2 10 11 7 17 1 20 -8 4z"/>
<path d="M8456 1145 c-3 -8 -1 -15 4 -15 6 0 10 7 10 15 0 8 -2 15 -4 15 -2 0
-6 -7 -10 -15z"/>
<path d="M8222 1100 c-1 -39 12 -47 15 -9 1 15 -1 31 -6 33 -4 3 -8 -8 -9 -24z"/>
<path d="M8373 1105 c0 -8 4 -12 9 -9 5 3 6 10 3 15 -9 13 -12 11 -12 -6z"/>
<path d="M8510 1094 c0 -8 5 -12 10 -9 6 4 8 11 5 16 -9 14 -15 11 -15 -7z"/>
<path d="M8606 1102 c-3 -5 1 -9 9 -9 8 0 12 4 9 9 -3 4 -7 8 -9 8 -2 0 -6 -4
-9 -8z"/>
<path d="M8264 1068 c-10 -12 -14 -18 -7 -15 6 4 13 4 16 0 2 -5 3 -3 1 3 -1
6 3 17 9 23 6 6 9 11 6 11 -3 0 -14 -10 -25 -22z"/>
<path d="M8179 1038 c-7 -23 -4 -35 7 -35 9 0 11 4 4 12 -5 7 -7 15 -3 18 3 4
3 7 0 7 -4 0 -7 -1 -8 -2z"/>
<path d="M8807 1023 c3 -7 9 -10 14 -7 14 8 11 21 -5 21 -8 0 -12 -6 -9 -14z"/>
<path d="M8120 936 c0 -2 8 -10 18 -17 15 -13 16 -12 3 4 -13 16 -21 21 -21
13z"/>
<path d="M8008 863 c7 -3 16 -2 19 1 4 3 -2 6 -13 5 -11 0 -14 -3 -6 -6z"/>
<path d="M9035 861 c-3 -5 -2 -12 3 -15 5 -3 9 1 9 9 0 17 -3 19 -12 6z"/>
<path d="M9200 836 c0 -2 7 -7 16 -10 8 -3 12 -2 9 4 -6 10 -25 14 -25 6z"/>
<path d="M7970 819 c0 -3 7 -14 16 -25 8 -10 12 -13 8 -5 -4 8 0 19 10 26 15
12 14 13 -8 11 -15 0 -26 -4 -26 -7z"/>
<path d="M7947 803 c-10 -9 -9 -23 1 -23 5 0 9 7 9 15 0 17 -1 18 -10 8z"/>
<path d="M9330 720 c-9 -6 -10 -10 -3 -10 6 0 15 5 18 10 8 12 4 12 -15 0z"/>
<path d="M9377 689 c7 -7 15 -10 18 -7 3 3 -2 9 -12 12 -14 6 -15 5 -6 -5z"/>
<path d="M9390 628 c-10 -21 -10 -21 3 -6 8 10 18 14 22 10 5 -4 5 -1 1 6 -10
17 -14 15 -26 -10z"/>
<path d="M7794 599 c-19 -22 -19 -22 4 -8 12 8 22 17 22 21 0 12 -6 9 -26 -13z"/>
<path d="M7830 560 c0 -5 5 -10 11 -10 5 0 7 5 4 10 -3 6 -8 10 -11 10 -2 0
-4 -4 -4 -10z"/>
<path d="M9488 553 c6 -2 9 -10 6 -15 -4 -7 -2 -8 5 -4 13 9 5 26 -12 25 -9 0
-8 -2 1 -6z"/>
<path d="M7768 529 c-10 -5 -18 -17 -18 -25 0 -8 -4 -12 -10 -9 -5 3 -10 1
-10 -4 0 -23 29 -3 54 37 9 14 6 15 -16 1z"/>
<path d="M7777 479 c7 -7 15 -10 18 -7 3 3 -2 9 -12 12 -14 6 -15 5 -6 -5z"/>
<path d="M9588 473 c7 -3 16 -2 19 1 4 3 -2 6 -13 5 -11 0 -14 -3 -6 -6z"/>
<path d="M7760 385 c-7 -9 -11 -18 -8 -20 3 -3 11 1 18 10 7 9 11 18 8 20 -3
3 -11 -1 -18 -10z"/>
<path d="M9826 313 c-6 -14 -5 -15 5 -6 7 7 10 15 7 18 -3 3 -9 -2 -12 -12z"/>
<path d="M7790 309 c0 -5 -6 -7 -12 -3 -10 6 -9 3 0 -8 8 -9 20 -14 28 -11 11
4 12 9 3 19 -14 17 -19 18 -19 3z"/>
<path d="M7846 302 c-3 -5 1 -9 9 -9 8 0 12 4 9 9 -3 4 -7 8 -9 8 -2 0 -6 -4
-9 -8z"/>
<path d="M7758 283 c-28 -7 -21 -18 12 -19 24 -1 28 1 19 12 -6 8 -12 13 -13
13 0 -1 -9 -3 -18 -6z"/>
<path d="M9797 267 c-3 -8 1 -14 8 -14 7 0 11 6 8 14 -6 16 -10 16 -16 0z"/>
<path d="M9790 226 c0 -2 8 -10 18 -17 15 -13 16 -12 3 4 -13 16 -21 21 -21
13z"/>
<path d="M7864 206 c4 -10 1 -25 -5 -32 -10 -12 -9 -13 5 -8 18 7 20 23 5 44
-9 12 -10 12 -5 -4z"/>
<path d="M7930 199 c0 -5 -4 -8 -9 -4 -5 3 -12 2 -15 -3 -2 -4 4 -9 15 -9 10
-1 19 5 19 13 0 8 -2 14 -5 14 -3 0 -5 -5 -5 -11z"/>
<path d="M7915 161 c-3 -5 -2 -12 3 -15 5 -3 9 1 9 9 0 17 -3 19 -12 6z"/>
<path d="M7980 150 c0 -5 7 -10 16 -10 8 0 12 5 9 10 -3 6 -10 10 -16 10 -5 0
-9 -4 -9 -10z"/>
<path d="M7955 120 c3 -5 8 -10 11 -10 2 0 4 5 4 10 0 6 -5 10 -11 10 -5 0 -7
-4 -4 -10z"/>
<path d="M8111 61 c-8 -5 -11 -16 -8 -25 4 -9 1 -16 -5 -16 -17 0 -3 -10 20
-15 12 -2 25 1 28 7 4 7 2 8 -4 4 -16 -10 -34 28 -20 42 14 14 9 15 -11 3z"/>
<path d="M8148 58 c11 -14 10 -17 -5 -21 -14 -4 -13 -5 5 -6 26 -1 29 11 5 30
-16 13 -17 12 -5 -3z"/>
</g>
</svg>
